<svg xmlns="http://www.w3.org/2000/svg" xmlns:xlink="http://www.w3.org/1999/xlink" id="Layer_1" viewBox="0 0 128 64" style="enable-background:new 0 0 128 64"><style>.st0{fill:#0066b3}.st1{fill:#faa634}</style><g><g><path class="st0" d="M55.8 51.1H46L52.1 13.7H61.9z"/><path class="st0" d="M37.8 13.7l-9.3 25.7-1.1-5.5v0L24.2 17c0 0-.4-3.4-4.6-3.4H4.2l-.2.6c0 0 4.7 1 10.2 4.3L22.7 51h10.1l15.5-37.4H37.8z"/><path class="st0" d="M114.4 51.1h8.9l-7.8-37.4h-7.8c-3.6.0-4.5 2.8-4.5 2.8L88.7 51.1h10.1l2-5.6h12.4L114.4 51.1zM103.7 37.8l5.1-14 2.9 14h-8z"/><path class="st0" d="M89.5 22.7l1.4-8c0 0-4.3-1.6-8.8-1.6-4.8.0-16.3 2.1-16.3 12.4.0 9.7 13.5 9.8 13.5 14.9s-12.1 4.2-16.1 1l-1.4 8.4c0 0 4.3 2.1 11 2.1 6.6.0 16.7-3.4 16.7-12.8.0-9.7-13.6-10.6-13.6-14.9C75.8 19.8 85.3 20.4 89.5 22.7z"/></g><path class="st1" d="M27.5 33.9 24.2 17c0 0-.4-3.4-4.6-3.4H4.2l-.2.6c0 0 7.4 1.5 14.4 7.3C25.3 27 27.5 33.9 27.5 33.9z"/></g></svg>